<svg width="800" height="800" viewBox="0 0 800 800" fill="none" xmlns="http://www.w3.org/2000/svg">
<path d="M155.804 383.514C166.934 383.514 175.571 386.446 181.715 392.31C187.859 398.175 191.27 404.837 191.948 412.297H180.339C179.022 406.632 176.389 402.144 172.44 398.833C168.53 395.522 163.025 393.866 155.923 393.866C147.266 393.866 140.265 396.918 134.919 403.022C129.613 409.086 126.96 418.401 126.96 430.968C126.96 441.261 129.353 449.618 134.141 456.041C138.968 462.425 146.149 465.616 155.684 465.616C164.461 465.616 171.143 462.245 175.731 455.503C178.165 451.952 179.98 447.285 181.177 441.5H192.786C191.749 450.755 188.318 458.515 182.493 464.778C175.512 472.318 166.096 476.088 154.248 476.088C144.035 476.088 135.457 472.997 128.516 466.813C119.38 458.635 114.812 446.008 114.812 428.933C114.812 415.968 118.243 405.336 125.105 397.038C132.525 388.022 142.758 383.514 155.804 383.514Z" fill="#7EB8E3"/>
<path d="M215.107 445.45C215.386 450.436 216.563 454.486 218.638 457.597C222.587 463.422 229.549 466.334 239.522 466.334C243.991 466.334 248.06 465.696 251.73 464.419C258.831 461.946 262.382 457.518 262.382 451.134C262.382 446.347 260.886 442.936 257.894 440.902C254.862 438.907 250.115 437.171 243.652 435.695L231.743 433.002C223.964 431.247 218.458 429.312 215.227 427.198C209.641 423.528 206.849 418.042 206.849 410.741C206.849 402.842 209.582 396.36 215.047 391.293C220.513 386.226 228.252 383.693 238.266 383.693C247.481 383.693 255.301 385.927 261.724 390.395C268.187 394.824 271.418 401.925 271.418 411.699H260.228C259.629 406.991 258.353 403.381 256.398 400.868C252.768 396.28 246.604 393.986 237.907 393.986C230.885 393.986 225.839 395.462 222.767 398.414C219.695 401.366 218.159 404.797 218.159 408.707C218.159 413.015 219.954 416.167 223.545 418.162C225.898 419.438 231.224 421.034 239.522 422.949L251.85 425.762C257.794 427.118 262.382 428.973 265.614 431.327C271.199 435.436 273.991 441.4 273.991 449.22C273.991 458.954 270.441 465.915 263.34 470.104C256.278 474.293 248.06 476.388 238.685 476.388C227.754 476.388 219.196 473.595 213.012 468.01C206.829 462.464 203.797 454.944 203.917 445.45H215.107Z" fill="#7EB8E3"/>
<path d="M296.851 445.45C297.13 450.436 298.307 454.486 300.382 457.597C304.331 463.422 311.293 466.334 321.267 466.334C325.735 466.334 329.804 465.696 333.474 464.419C340.576 461.946 344.126 457.518 344.126 451.134C344.126 446.347 342.63 442.936 339.638 440.902C336.606 438.907 331.859 437.171 325.396 435.695L313.487 433.002C305.708 431.247 300.202 429.312 296.971 427.198C291.386 423.528 288.593 418.042 288.593 410.741C288.593 402.842 291.326 396.36 296.791 391.293C302.257 386.226 309.996 383.693 320.01 383.693C329.226 383.693 337.045 385.927 343.468 390.395C349.931 394.824 353.162 401.925 353.162 411.699H341.972C341.374 406.991 340.097 403.381 338.142 400.868C334.512 396.28 328.348 393.986 319.651 393.986C312.629 393.986 307.583 395.462 304.511 398.414C301.439 401.366 299.903 404.797 299.903 408.707C299.903 413.015 301.698 416.167 305.289 418.162C307.643 419.438 312.969 421.034 321.267 422.949L333.594 425.762C339.538 427.118 344.126 428.973 347.358 431.327C352.943 435.436 355.736 441.4 355.736 449.22C355.736 458.954 352.185 465.915 345.084 470.104C338.022 474.293 329.804 476.388 320.429 476.388C309.498 476.388 300.94 473.595 294.757 468.01C288.573 462.464 285.541 454.944 285.661 445.45H296.851Z" fill="#7EB8E3"/>
<path d="M118.462 535.454H135.517L160.77 609.777L185.844 535.454H202.72V623.361H191.41V571.479C191.41 569.683 191.449 566.711 191.529 562.562C191.609 558.413 191.649 553.965 191.649 549.218L166.575 623.361H154.786L129.533 549.218V551.91C129.533 554.065 129.573 557.356 129.653 561.784C129.772 566.173 129.832 569.404 129.832 571.479V623.361H118.462V535.454Z" fill="#7EB8E3"/>
<path d="M258.792 533.06C274.311 533.06 285.8 538.047 293.261 548.021C299.085 555.8 301.997 565.754 301.997 577.882C301.997 591.007 298.666 601.918 292.004 610.615C284.185 620.828 273.034 625.934 258.552 625.934C245.028 625.934 234.396 621.466 226.656 612.53C219.755 603.913 216.304 593.022 216.304 579.856C216.304 567.968 219.256 557.795 225.16 549.337C232.74 538.486 243.951 533.06 258.792 533.06ZM259.988 615.283C270.481 615.283 278.061 611.532 282.728 604.032C287.436 596.492 289.79 587.835 289.79 578.061C289.79 567.729 287.077 559.411 281.651 553.107C276.265 546.804 268.885 543.652 259.51 543.652C250.414 543.652 242.993 546.784 237.248 553.047C231.504 559.271 228.631 568.467 228.631 580.634C228.631 590.369 231.085 598.587 235.992 605.289C240.939 611.951 248.938 615.283 259.988 615.283Z" fill="#7EB8E3"/>
<path d="M349.991 613.188C354.02 613.188 357.331 612.769 359.925 611.931C364.552 610.376 368.342 607.383 371.294 602.955C373.648 599.405 375.344 594.857 376.381 589.311C376.979 586 377.279 582.928 377.279 580.096C377.279 569.205 375.104 560.747 370.756 554.723C366.447 548.699 359.486 545.687 349.871 545.687H328.747V613.188H349.991ZM316.778 535.454H352.384C364.473 535.454 373.848 539.743 380.51 548.32C386.454 556.059 389.427 565.973 389.427 578.061C389.427 587.396 387.671 595.834 384.161 603.374C377.977 616.699 367.345 623.361 352.265 623.361H316.778V535.454Z" fill="#7EB8E3"/>
<path d="M417.732 535.454V589.79C417.732 596.173 418.929 601.479 421.322 605.708C424.873 612.091 430.857 615.283 439.275 615.283C449.368 615.283 456.23 611.832 459.861 604.93C461.815 601.18 462.793 596.133 462.793 589.79V535.454H474.881V584.823C474.881 595.635 473.425 603.953 470.512 609.777C465.167 620.389 455.073 625.695 440.232 625.695C425.392 625.695 415.318 620.389 410.012 609.777C407.1 603.953 405.644 595.635 405.644 584.823V535.454H417.732Z" fill="#7EB8E3"/>
<path d="M493.372 535.454H505.281V612.889H549.803V623.361H493.372V535.454Z" fill="#7EB8E3"/>
<path d="M562.729 535.454H626.82V546.225H574.338V572.915H622.87V583.088H574.338V612.889H627.717V623.361H562.729V535.454Z" fill="#7EB8E3"/>
<path d="M651.116 594.996C651.395 599.983 652.572 604.032 654.646 607.144C658.596 612.969 665.557 615.881 675.531 615.881C679.999 615.881 684.068 615.243 687.739 613.966C694.84 611.493 698.391 607.064 698.391 600.681C698.391 595.894 696.895 592.483 693.903 590.448C690.871 588.454 686.123 586.718 679.66 585.242L667.752 582.549C659.972 580.794 654.467 578.859 651.235 576.745C645.65 573.074 642.857 567.589 642.857 560.288C642.857 552.389 645.59 545.906 651.056 540.84C656.521 535.773 664.261 533.24 674.274 533.24C683.49 533.24 691.309 535.474 697.732 539.942C704.195 544.37 707.427 551.472 707.427 561.246H696.236C695.638 556.538 694.361 552.928 692.406 550.414C688.776 545.827 682.612 543.533 673.915 543.533C666.894 543.533 661.847 545.009 658.775 547.961C655.703 550.913 654.167 554.344 654.167 558.254C654.167 562.562 655.963 565.714 659.553 567.709C661.907 568.985 667.233 570.581 675.531 572.496L687.858 575.308C693.803 576.665 698.391 578.52 701.622 580.874C707.207 584.983 710 590.947 710 598.766C710 608.501 706.449 615.462 699.348 619.651C692.287 623.84 684.068 625.934 674.693 625.934C663.762 625.934 655.205 623.142 649.021 617.557C642.837 612.011 639.805 604.491 639.925 594.996H651.116Z" fill="#7EB8E3"/>
<path fill-rule="evenodd" clip-rule="evenodd" d="M591.627 150.647H92.6475V650.353H591.627V150.647ZM89 147V654H595.274V147H89Z" fill="#7EB8E3"/>
</svg>
