<svg width="800" height="800" viewBox="0 0 800 800" fill="none" xmlns="http://www.w3.org/2000/svg">
<path d="M514.03 459.132L513.61 458.713L512.028 460.298C505.796 466.52 495.027 462.948 493.925 454.217C493.703 452.422 493.594 450.614 493.6 448.805V301.207H493.037V315.912C493.037 316.294 492.913 316.666 492.684 316.972C492.456 317.278 492.134 317.502 491.767 317.611C491.4 317.72 491.008 317.708 490.649 317.576C490.29 317.445 489.983 317.202 489.773 316.882C487.625 313.573 484.682 310.853 481.212 308.97C477.741 307.088 473.855 306.103 469.905 306.105H425.116L390.677 340.495C390.262 340.907 389.734 341.188 389.16 341.302C388.586 341.415 387.991 341.356 387.45 341.132C386.909 340.908 386.447 340.529 386.122 340.043C385.798 339.557 385.624 338.985 385.624 338.401V301.207H385.031V318.189C385.032 318.593 384.894 318.986 384.641 319.301C384.388 319.617 384.035 319.836 383.639 319.924C383.244 320.012 382.831 319.962 382.468 319.783C382.105 319.604 381.814 319.307 381.643 318.94C376.904 308.784 369.648 306.117 369.648 306.117L335.669 339.649L336.09 340.069L337.589 338.59C343.821 332.45 354.453 336.005 355.638 344.671C355.891 346.587 356.014 348.517 356.006 350.45V460.386L318.787 497.551L319.208 497.965L321.079 496.101C322.072 495.137 323.247 494.38 324.536 493.872C325.824 493.364 327.2 493.117 328.585 493.144H401.718L430.317 464.202L435.122 459.404L434.707 458.984L432.853 460.836C431.863 461.825 430.688 462.611 429.394 463.147C428.1 463.683 426.713 463.959 425.312 463.959H396.061C395.475 463.959 394.902 463.785 394.415 463.46C393.928 463.135 393.548 462.672 393.325 462.131C393.101 461.59 393.042 460.996 393.158 460.422C393.272 459.848 393.555 459.321 393.97 458.908L458.959 394.014C459.373 393.602 459.9 393.321 460.473 393.208C461.047 393.094 461.641 393.152 462.182 393.376C462.722 393.599 463.184 393.977 463.51 394.462C463.835 394.947 464.01 395.518 464.011 396.102V459.907C464.011 487.27 480.005 493.114 480.005 493.114L514.03 459.132ZM396.985 335.011H428.102C428.688 335.01 429.262 335.183 429.75 335.508C430.238 335.833 430.619 336.295 430.843 336.837C431.068 337.378 431.127 337.973 431.012 338.547C430.897 339.122 430.614 339.649 430.199 340.063L390.677 379.551C390.262 379.966 389.734 380.249 389.159 380.363C388.584 380.478 387.987 380.42 387.446 380.195C386.903 379.971 386.44 379.591 386.115 379.104C385.79 378.616 385.616 378.043 385.618 377.458C385.618 366.332 385.618 346.38 385.618 346.38L396.985 335.011ZM385.594 385.437L391.938 379.114V424.506L385.582 430.853L385.594 385.437ZM358.298 458.931L386.897 430.374C387.312 429.961 387.84 429.68 388.414 429.567C388.988 429.453 389.583 429.513 390.124 429.736C390.664 429.961 391.127 430.34 391.451 430.826C391.776 431.312 391.95 431.883 391.95 432.467V458.861C391.948 459.644 391.635 460.395 391.079 460.949L388.046 463.983H360.383C359.797 463.982 359.225 463.807 358.739 463.481C358.253 463.155 357.874 462.693 357.651 462.152C357.428 461.612 357.37 461.017 357.485 460.444C357.601 459.871 357.883 459.344 358.298 458.931ZM421.563 423.382V349.539L436.111 335.011H453.36C456.188 335.011 458.9 336.133 460.9 338.13C462.9 340.127 464.023 342.835 464.023 345.659V388.176L426.651 425.493C426.237 425.92 425.705 426.212 425.123 426.332C424.541 426.452 423.936 426.394 423.387 426.167C422.838 425.939 422.371 425.552 422.045 425.055C421.72 424.558 421.552 423.975 421.563 423.382Z" fill="#FF98A2"/>
<path d="M183.876 374.193L94.0796 463.858H76.0538C75.468 463.858 74.8951 463.684 74.4075 463.359C73.9204 463.034 73.5411 462.571 73.317 462.03C73.0935 461.49 73.0352 460.895 73.1499 460.321C73.2646 459.747 73.5475 459.22 73.9628 458.807L99.3398 433.449C101.335 431.453 102.456 428.747 102.455 425.925V350.805C102.455 350.416 102.532 350.03 102.682 349.671C102.831 349.312 103.05 348.985 103.326 348.711L117.04 335.017C119.854 335.038 122.546 336.168 124.529 338.163C126.512 340.157 127.625 342.854 127.625 345.664V367.047C127.626 367.98 127.442 368.903 127.085 369.765C126.729 370.626 126.205 371.409 125.545 372.069L123.597 374.015L123.959 374.489L157.231 341.281V301.231H156.639V315.93C156.637 316.31 156.512 316.679 156.284 316.984C156.055 317.288 155.734 317.511 155.37 317.619C155.004 317.728 154.615 317.717 154.256 317.587C153.898 317.458 153.592 317.217 153.381 316.9C151.23 313.594 148.286 310.877 144.816 308.995C141.347 307.114 137.461 306.129 133.513 306.128H105.672L81.3258 330.528L71.8477 339.992C71.4336 340.405 70.906 340.685 70.3313 340.799C69.7572 340.912 69.162 340.853 68.6214 340.629C68.0809 340.405 67.6191 340.026 67.2939 339.54C66.9686 339.054 66.7951 338.482 66.7951 337.898V301.225H66.2028V318.189C66.2034 318.593 66.0657 318.986 65.8122 319.301C65.5593 319.617 65.2058 319.836 64.8105 319.924C64.4153 320.012 64.0024 319.962 63.6394 319.783C63.2759 319.604 62.9854 319.307 62.8142 318.94C58.0754 308.784 50.819 306.117 50.819 306.117L16.8468 339.649L17.2616 340.069L18.7601 338.59C25.0037 332.444 35.6308 336.017 36.8096 344.694C37.063 346.602 37.1856 348.525 37.1768 350.45V460.209L0 497.332L0.420556 497.752L1.87775 496.296C3.87158 494.3 6.57722 493.174 9.4009 493.167H116.886L175.458 434.325C177.456 432.329 178.579 429.623 178.58 426.801V384.644C178.581 381.823 179.704 379.116 181.702 377.12L184.219 374.607L183.876 374.193ZM66.8604 376.825V345.824L77.6884 335.011H109.043C109.629 335.01 110.202 335.183 110.691 335.508C111.179 335.833 111.559 336.295 111.784 336.837C112.008 337.378 112.067 337.973 111.952 338.547C111.838 339.122 111.555 339.649 111.139 340.063L71.9071 379.238C71.493 379.653 70.9648 379.936 70.3895 380.05C69.8143 380.165 69.2179 380.106 68.6761 379.882C68.1344 379.657 67.6709 379.277 67.3456 378.79C67.0204 378.303 66.8474 377.73 66.8486 377.144L66.8604 376.825ZM66.8604 385.106L72.8546 379.114V424.624L66.8486 430.622L66.8604 385.106ZM68.045 463.841H41.5721C40.9856 463.842 40.4119 463.669 39.9239 463.344C39.4358 463.019 39.0554 462.557 38.8309 462.016C38.6062 461.475 38.5475 460.879 38.6622 460.305C38.7769 459.73 39.06 459.203 39.4753 458.789L67.7962 430.516C68.2103 430.101 68.7379 429.819 69.3125 429.704C69.8872 429.59 70.4831 429.647 71.0248 429.871C71.5665 430.095 72.0294 430.473 72.3553 430.96C72.6805 431.446 72.8546 432.018 72.8546 432.604V459.002L68.045 463.841ZM149.033 459.198C149.033 459.668 148.845 460.119 148.512 460.452L145.645 463.32C145.312 463.653 144.86 463.84 144.389 463.841H102.047C101.46 463.842 100.887 463.669 100.399 463.344C99.9103 463.019 99.5297 462.557 99.305 462.016C99.0804 461.475 99.0221 460.879 99.1368 460.305C99.2515 459.73 99.5344 459.203 99.9497 458.789L143.98 414.829C144.395 414.416 144.922 414.136 145.497 414.022C146.071 413.909 146.666 413.968 147.206 414.192C147.747 414.416 148.209 414.795 148.534 415.281C148.86 415.767 149.033 416.338 149.033 416.922V459.198Z" fill="#FF98A2"/>
<path d="M778.855 376.423L737.734 370.289C737.187 370.207 736.681 369.977 736.264 369.624C735.84 369.271 735.528 368.808 735.358 368.289C735.187 367.768 735.164 367.212 735.293 366.679C735.416 366.147 735.693 365.66 736.081 365.273L800 301.42L799.582 301L797.583 302.999C796.594 303.988 795.418 304.772 794.124 305.307C792.83 305.842 791.442 306.117 790.042 306.117H711.318L648.099 369.241V373.796C648.099 378.555 649.811 383.155 652.923 386.762C656.034 390.367 660.334 392.739 665.045 393.446C665.51 393.517 665.939 393.713 666.298 394.014C666.651 394.315 666.916 394.708 667.063 395.15C667.21 395.593 667.227 396.067 667.122 396.52C667.01 396.973 666.78 397.387 666.451 397.717L635.177 428.948L635.594 429.368L637.447 427.516C638.235 426.731 639.194 426.141 640.253 425.794C641.312 425.446 642.435 425.352 643.535 425.517L693.825 433.082C694.367 433.165 694.872 433.396 695.29 433.749C695.708 434.103 696.019 434.565 696.196 435.085C696.366 435.604 696.384 436.161 696.261 436.693C696.131 437.225 695.861 437.712 695.472 438.098L635.689 497.58L636.112 498L637.841 496.273C639.841 494.287 642.547 493.173 645.364 493.173H732.081C732.234 493.173 732.381 493.111 732.493 493.002L799.406 426.789V400.254C799.406 394.482 797.336 388.902 793.559 384.528C789.789 380.155 784.572 377.278 778.855 376.423ZM731.193 369.325L706.16 365.586C705.613 365.505 705.107 365.276 704.689 364.923C704.266 364.57 703.954 364.108 703.784 363.588C703.613 363.068 703.584 362.51 703.713 361.978C703.836 361.445 704.113 360.958 704.501 360.571L730.199 334.905L758.568 334.834C759.156 334.833 759.726 335.005 760.215 335.33C760.703 335.654 761.085 336.115 761.309 336.655C761.538 337.195 761.597 337.79 761.479 338.364C761.368 338.938 761.085 339.465 760.673 339.879L731.193 369.325ZM684.873 362.41C683.291 362.175 681.844 361.379 680.797 360.169C679.75 358.958 679.18 357.413 679.174 355.815V338.838L683.038 335.029L722.188 334.929C722.776 334.928 723.347 335.1 723.835 335.424C724.323 335.748 724.7 336.21 724.929 336.75C725.153 337.29 725.211 337.884 725.1 338.458C724.988 339.032 724.706 339.56 724.288 339.974L699.619 364.61L684.873 362.41ZM665.986 399.036L670.721 394.304L723.847 402.277C724.464 402.37 725.047 402.633 725.523 403.037C726.005 403.441 726.358 403.969 726.558 404.564C726.752 405.158 726.776 405.795 726.629 406.403C726.488 407.011 726.176 407.567 725.729 408.008L665.986 399.036ZM700.343 434.076L726.205 437.968C726.747 438.051 727.252 438.282 727.67 438.636C728.094 438.99 728.405 439.454 728.57 439.975C728.741 440.495 728.764 441.053 728.635 441.585C728.505 442.118 728.235 442.604 727.847 442.99L706.719 463.912H677.527C676.944 463.913 676.368 463.74 675.88 463.414C675.391 463.088 675.009 462.625 674.786 462.083C674.562 461.541 674.503 460.944 674.621 460.369C674.739 459.794 675.021 459.267 675.439 458.854L700.343 434.076ZM712.648 458.854L754.621 417.13C755.009 416.743 755.28 416.257 755.409 415.725C755.533 415.193 755.509 414.636 755.339 414.116C755.168 413.596 754.856 413.134 754.439 412.781C754.021 412.427 753.515 412.196 752.974 412.114L726.453 408.098L730.993 403.578C731.064 403.513 731.14 403.464 731.229 403.435C731.317 403.406 731.411 403.398 731.505 403.413L758.309 407.435C760.391 407.748 762.285 408.795 763.661 410.386C765.032 411.977 765.785 414.007 765.785 416.107V458.848L760.691 463.888H714.759C714.177 463.885 713.606 463.711 713.118 463.385C712.636 463.059 712.259 462.598 712.036 462.059C711.812 461.519 711.754 460.926 711.865 460.354C711.983 459.781 712.259 459.256 712.677 458.842L712.648 458.854Z" fill="#FF98A2"/>
<path d="M654.905 459.132L654.487 458.713L652.352 460.842C650.352 462.837 647.647 463.958 644.817 463.959H588.827C588.245 463.959 587.671 463.785 587.184 463.461C586.697 463.136 586.317 462.675 586.093 462.135C585.869 461.595 585.81 461.001 585.923 460.428C586.037 459.854 586.318 459.327 586.732 458.913L622.56 423.139L622.142 422.719L617.925 426.931C617.678 427.179 617.36 427.348 617.013 427.416C616.672 427.484 616.314 427.449 615.99 427.315C615.667 427.181 615.39 426.954 615.19 426.662C614.996 426.37 614.89 426.028 614.89 425.677V338.608L618.66 334.84H639.659V334.804L672.939 301.574L672.515 301.154L670.674 302.999C669.686 303.988 668.51 304.772 667.216 305.307C665.922 305.842 664.534 306.117 663.134 306.117H545.497L511.91 339.667L512.331 340.087L514.368 338.081C516.358 336.119 519.041 335.017 521.838 335.011L574.73 334.923C575.316 334.922 575.889 335.094 576.376 335.418C576.864 335.742 577.245 336.204 577.47 336.744C577.695 337.284 577.755 337.879 577.641 338.453C577.528 339.026 577.246 339.554 576.833 339.968L541.493 375.257L541.913 375.677L546.095 371.496C546.344 371.247 546.661 371.078 547.006 371.01C547.352 370.942 547.709 370.978 548.034 371.113C548.359 371.248 548.636 371.476 548.83 371.768C549.026 372.061 549.129 372.404 549.128 372.755V459.623L544.78 463.959H526.69L492.658 497.58L493.078 498L494.855 496.226C496.846 494.26 499.532 493.155 502.331 493.15H621.119L654.905 459.132ZM582.739 334.917L610.632 334.869C611.22 334.87 611.79 335.043 612.278 335.368C612.767 335.692 613.143 336.154 613.367 336.693C613.59 337.233 613.649 337.827 613.537 338.401C613.425 338.974 613.143 339.501 612.731 339.915L583.799 368.81C583.385 369.224 582.857 369.507 582.281 369.622C581.706 369.736 581.11 369.678 580.568 369.453C580.026 369.229 579.563 368.849 579.238 368.362C578.912 367.875 578.739 367.302 578.74 366.716V338.915L582.739 334.917ZM578.74 374.689L585.256 368.183V423.559L578.74 430.066V374.689ZM580.221 429.451C580.635 429.036 581.163 428.754 581.737 428.639C582.312 428.525 582.908 428.583 583.449 428.806C583.991 429.03 584.454 429.409 584.78 429.895C585.106 430.381 585.28 430.953 585.28 431.539V459.535L580.837 463.971H552.789C552.204 463.971 551.631 463.797 551.145 463.473C550.658 463.148 550.278 462.687 550.054 462.147C549.83 461.607 549.77 461.013 549.884 460.439C549.997 459.866 550.278 459.339 550.692 458.925L580.221 429.451Z" fill="#FF98A2"/>
<path d="M331.482 458.861L331.061 458.44L328.727 460.776C327.736 461.766 326.561 462.55 325.267 463.084C323.973 463.619 322.586 463.894 321.186 463.894H258.697C258.113 463.893 257.542 463.718 257.055 463.394C256.569 463.068 256.191 462.607 255.968 462.067C255.744 461.528 255.685 460.934 255.799 460.361C255.912 459.789 256.194 459.262 256.606 458.848L336.226 379.339L335.811 378.919L333.004 381.716C332.007 382.711 330.823 383.499 329.52 384.034C328.216 384.569 326.821 384.84 325.411 384.833C324.003 384.826 322.609 384.54 321.311 383.992C320.013 383.444 318.837 382.644 317.851 381.639L298.522 361.96C297.979 361.407 297.676 360.664 297.676 359.89C297.676 359.116 297.979 358.373 298.522 357.82L354.797 301.627L354.376 301.207L352.522 303.065C351.531 304.054 350.354 304.838 349.06 305.373C347.764 305.908 346.377 306.183 344.975 306.182H263.537L229.642 340.027C229.228 340.442 228.7 340.724 228.126 340.839C227.551 340.954 226.955 340.896 226.413 340.672C225.872 340.449 225.409 340.07 225.083 339.583C224.757 339.097 224.583 338.525 224.583 337.939V301.266H223.991V318.189C223.989 318.591 223.85 318.98 223.597 319.293C223.344 319.606 222.992 319.824 222.6 319.912C222.207 319.999 221.795 319.95 221.434 319.774C221.072 319.597 220.781 319.304 220.608 318.94C215.869 308.784 208.607 306.117 208.607 306.117L174.635 339.649L175.049 340.069L176.554 338.59C182.786 332.45 193.413 336.005 194.597 344.671C194.853 346.586 194.978 348.517 194.971 350.45V460.327L157.788 497.456L158.209 497.87L159.956 496.125C161.952 494.132 164.657 493.012 167.479 493.008H297.154L331.482 458.861ZM293.872 420.797L250.712 463.894H233.623C233.038 463.893 232.466 463.718 231.981 463.394C231.495 463.068 231.116 462.607 230.892 462.067C230.669 461.528 230.61 460.934 230.724 460.361C230.838 459.789 231.119 459.262 231.532 458.848L257.229 433.189C258.22 432.198 259.006 431.023 259.541 429.729C260.077 428.435 260.352 427.048 260.35 425.647V395.93L266.866 389.424L293.884 416.633C294.432 417.188 294.738 417.937 294.737 418.717C294.734 419.497 294.424 420.245 293.872 420.797ZM260.339 387.987V348.758L274.17 334.946L313.556 334.846C314.143 334.844 314.718 335.016 315.207 335.34C315.696 335.665 316.077 336.127 316.303 336.668C316.528 337.209 316.587 337.806 316.473 338.38C316.358 338.955 316.075 339.483 315.659 339.897L265.409 390.075C264.996 390.493 264.467 390.779 263.89 390.896C263.314 391.013 262.715 390.956 262.171 390.732C261.627 390.508 261.162 390.127 260.836 389.638C260.509 389.149 260.336 388.574 260.339 387.987ZM235.459 335.047L266.143 334.97C266.729 334.969 267.302 335.142 267.79 335.466C268.278 335.79 268.658 336.251 268.883 336.791C269.108 337.331 269.168 337.926 269.055 338.5C268.941 339.074 268.66 339.601 268.247 340.016L229.671 378.262C229.257 378.673 228.73 378.952 228.156 379.064C227.583 379.176 226.99 379.117 226.45 378.893C225.91 378.669 225.449 378.291 225.125 377.806C224.8 377.321 224.626 376.752 224.625 376.168V347.084C224.626 346.3 224.939 345.549 225.495 344.996L235.459 335.047ZM224.625 384.39L230.726 378.322V424.683L224.613 430.794L224.625 384.39ZM230.744 432.657V458.842L225.655 463.923H199.425C198.84 463.923 198.268 463.75 197.781 463.425C197.294 463.101 196.915 462.639 196.69 462.1C196.466 461.56 196.407 460.966 196.521 460.392C196.634 459.819 196.915 459.292 197.328 458.878L225.679 430.569C226.091 430.156 226.616 429.874 227.188 429.759C227.76 429.643 228.353 429.699 228.894 429.918C229.434 430.138 229.897 430.513 230.225 430.994C230.554 431.477 230.732 432.045 230.738 432.627L230.744 432.657Z" fill="#FF98A2"/>
</svg>
