<svg width="800" height="800" viewBox="0 0 800 800" fill="none" xmlns="http://www.w3.org/2000/svg">
<path d="M592.771 297.514C592.771 297.514 465.06 203.341 366.265 225.073L359.036 227.488C344.578 232.317 332.53 239.561 325.301 249.22L320.482 256.464L284.337 319.246L346.988 331.319C373.494 348.222 407.229 355.466 438.554 348.222L549.398 369.954L592.771 297.514Z" fill="#76B3E1"/>
<path opacity="0.3" d="M592.771 297.514C592.771 297.514 465.06 203.341 366.265 225.073L359.036 227.488C344.578 232.317 332.53 239.561 325.301 249.22L320.482 256.464L284.337 319.246L346.988 331.319C373.494 348.222 407.229 355.466 438.554 348.222L549.398 369.954L592.771 297.514Z" fill="url(#paint0_linear_715_33)"/>
<path d="M325.301 297.514L315.663 299.928C274.699 312.002 262.651 350.637 284.337 384.442C308.434 415.833 359.036 432.736 400 420.663L549.398 369.954C549.398 369.954 421.687 275.782 325.301 297.514Z" fill="#518AC8"/>
<path opacity="0.3" d="M325.301 297.514L315.663 299.928C274.699 312.002 262.651 350.637 284.337 384.442C308.434 415.833 359.036 432.736 400 420.663L549.398 369.954C549.398 369.954 421.687 275.782 325.301 297.514Z" fill="url(#paint1_linear_715_33)"/>
<path d="M522.892 406.175C509.401 389.285 491.186 376.816 470.581 370.363C449.975 363.91 427.916 363.768 407.229 369.954L257.831 418.248L209.639 502.762L479.518 548.641L527.711 461.712C537.349 444.809 534.94 425.492 522.892 406.175Z" fill="url(#paint2_linear_715_33)"/>
<path d="M474.699 490.688C461.208 473.799 442.994 461.329 422.388 454.877C401.782 448.424 379.723 448.282 359.036 454.468L209.639 502.762C209.639 502.762 337.35 599.349 436.145 575.202L443.374 572.788C484.337 560.714 498.795 522.079 474.699 490.688Z" fill="url(#paint3_linear_715_33)"/>
<defs>
<linearGradient id="paint0_linear_715_33" x1="266.265" y1="220.244" x2="566.504" y2="365.839" gradientUnits="userSpaceOnUse">
<stop offset="0.1" stop-color="#76B3E1"/>
<stop offset="0.3" stop-color="#DCF2FD"/>
<stop offset="1" stop-color="#76B3E1"/>
</linearGradient>
<linearGradient id="paint1_linear_715_33" x1="430.843" y1="291.719" x2="378.111" y2="466.964" gradientUnits="userSpaceOnUse">
<stop stop-color="#76B3E1"/>
<stop offset="0.5" stop-color="#4377BB"/>
<stop offset="1" stop-color="#1F3B77"/>
</linearGradient>
<linearGradient id="paint2_linear_715_33" x1="244.337" y1="368.023" x2="548.112" y2="574.129" gradientUnits="userSpaceOnUse">
<stop stop-color="#315AA9"/>
<stop offset="0.5" stop-color="#518AC8"/>
<stop offset="1" stop-color="#315AA9"/>
</linearGradient>
<linearGradient id="paint3_linear_715_33" x1="381.205" y1="392.894" x2="258.318" y2="842.618" gradientUnits="userSpaceOnUse">
<stop stop-color="#4377BB"/>
<stop offset="0.5" stop-color="#1A336B"/>
<stop offset="1" stop-color="#1A336B"/>
</linearGradient>
</defs>
</svg>
