<svg width="800" height="800" viewBox="0 0 800 800" fill="none" xmlns="http://www.w3.org/2000/svg">
<path d="M594.641 257.525L410.643 586.545C406.844 593.338 397.084 593.378 393.228 586.618L205.582 257.556C201.381 250.19 207.68 241.266 216.028 242.759L400.223 275.682C401.398 275.892 402.601 275.89 403.776 275.676L584.119 242.806C592.439 241.289 598.768 250.143 594.641 257.525Z" fill="url(#paint0_linear_715_32)"/>
<path d="M487.965 199.574L351.801 226.255C349.563 226.694 347.906 228.59 347.771 230.866L339.395 372.33C339.198 375.662 342.258 378.248 345.51 377.498L383.42 368.749C386.967 367.931 390.172 371.055 389.443 374.622L378.18 429.775C377.422 433.487 380.907 436.661 384.532 435.56L407.947 428.446C411.577 427.344 415.065 430.527 414.297 434.242L396.398 520.875C395.278 526.294 402.486 529.249 405.492 524.603L407.5 521.5L518.454 300.072C520.312 296.364 517.108 292.137 513.036 292.923L474.014 300.454C470.347 301.161 467.227 297.746 468.262 294.158L493.731 205.867C494.767 202.273 491.636 198.855 487.965 199.574Z" fill="url(#paint1_linear_715_32)"/>
<defs>
<linearGradient id="paint0_linear_715_32" x1="201" y1="231" x2="430" y2="542" gradientUnits="userSpaceOnUse">
<stop stop-color="#41D1FF"/>
<stop offset="1" stop-color="#BD34FE"/>
</linearGradient>
<linearGradient id="paint1_linear_715_32" x1="389.651" y1="206.818" x2="431.076" y2="490.989" gradientUnits="userSpaceOnUse">
<stop stop-color="#FFEA83"/>
<stop offset="0.0833333" stop-color="#FFDD35"/>
<stop offset="1" stop-color="#FFA800"/>
</linearGradient>
</defs>
</svg>
